<?xml version="1.0" encoding="iso-8859-1"?>
<!-- Uploaded to: SVG Repo, www.svgrepo.com, Generator: SVG Repo Mixer Tools -->
<svg fill="#000000" height="30px" width="30px" version="1.1" id="Layer_1" xmlns="http://www.w3.org/2000/svg" xmlns:xlink="http://www.w3.org/1999/xlink"
	 viewBox="0 0 512.069 512.069" xml:space="preserve">
<g>
	<g>
		<path d="M511.181,499.768L263.715,4.835c-2.56-5.973-12.8-5.973-15.36,0L0.888,499.768c-1.707,3.413-0.853,6.827,1.707,9.387
			c2.56,2.56,6.827,2.56,10.24,0.853l243.2-158.72l243.2,158.72c0.853,0.853,2.56,1.707,4.267,1.707s4.267-0.853,5.973-1.707
			C512.035,507.448,512.888,503.181,511.181,499.768z M260.301,334.221c-0.853-0.853-2.56-1.707-4.267-1.707
			s-3.413,0.853-4.267,0.853L30.755,478.435l225.28-451.413l225.28,452.267L260.301,334.221z"/>
	</g>
</g>
</svg>